<svg xmlns="http://www.w3.org/2000/svg" viewBox="0 0 1280 720" width="1280" height="720">
<defs>
<linearGradient id="bg" x1="0" y1="0" x2="1" y2="1"><stop offset="0" stop-color="#030219"/><stop offset="1" stop-color="#0a0826"/></linearGradient>
<radialGradient id="glow" cx="0.62" cy="0.48" r="0.55"><stop offset="0" stop-color="#0affd4" stop-opacity="0.30"/><stop offset="0.55" stop-color="#4d8bff" stop-opacity="0.08"/><stop offset="1" stop-color="#030219" stop-opacity="0"/></radialGradient>
<pattern id="grid" width="40" height="40" patternUnits="userSpaceOnUse"><path d="M40 0H0V40" fill="none" stroke="#1f1b47" stroke-width="1"/></pattern>
<linearGradient id="vig" x1="0" y1="0" x2="0" y2="1"><stop offset="0" stop-color="#030219" stop-opacity="0.55"/><stop offset="0.3" stop-color="#030219" stop-opacity="0"/><stop offset="0.75" stop-color="#030219" stop-opacity="0"/><stop offset="1" stop-color="#030219" stop-opacity="0.7"/></linearGradient>
<filter id="blur" x="-50%" y="-50%" width="200%" height="200%"><feGaussianBlur stdDeviation="10"/></filter>
<filter id="soft" x="-50%" y="-50%" width="200%" height="200%"><feGaussianBlur stdDeviation="3"/></filter>
</defs>
<rect width="1280" height="720" fill="url(#bg)"/>
<rect width="1280" height="720" fill="url(#grid)" opacity="0.55"/>
<rect width="1280" height="720" fill="url(#glow)"/>
<rect x="784" y="596" width="2" height="2" fill="#b8b5d1" opacity="0.12"/><rect x="447" y="171" width="2" height="2" fill="#b8b5d1" opacity="0.12"/><rect x="346" y="686" width="2" height="2" fill="#b8b5d1" opacity="0.25"/><rect x="187" y="154" width="2" height="2" fill="#b8b5d1" opacity="0.25"/><rect x="580" y="13" width="2" height="2" fill="#b8b5d1" opacity="0.18"/><rect x="957" y="650" width="2" height="2" fill="#b8b5d1" opacity="0.12"/><rect x="57" y="529" width="2" height="2" fill="#b8b5d1" opacity="0.12"/><rect x="1006" y="454" width="2" height="2" fill="#b8b5d1" opacity="0.25"/><rect x="623" y="511" width="2" height="2" fill="#b8b5d1" opacity="0.12"/><rect x="520" y="626" width="2" height="2" fill="#b8b5d1" opacity="0.12"/><rect x="669" y="312" width="2" height="2" fill="#b8b5d1" opacity="0.12"/><rect x="1110" y="664" width="2" height="2" fill="#b8b5d1" opacity="0.18"/><rect x="68" y="218" width="2" height="2" fill="#b8b5d1" opacity="0.18"/><rect x="694" y="71" width="2" height="2" fill="#b8b5d1" opacity="0.18"/><rect x="198" y="251" width="2" height="2" fill="#b8b5d1" opacity="0.25"/><rect x="1221" y="156" width="2" height="2" fill="#b8b5d1" opacity="0.18"/><rect x="581" y="272" width="2" height="2" fill="#b8b5d1" opacity="0.25"/><rect x="560" y="202" width="2" height="2" fill="#b8b5d1" opacity="0.12"/><rect x="1180" y="506" width="2" height="2" fill="#b8b5d1" opacity="0.12"/><rect x="293" y="332" width="2" height="2" fill="#b8b5d1" opacity="0.18"/><rect x="405" y="686" width="2" height="2" fill="#b8b5d1" opacity="0.25"/><rect x="269" y="487" width="2" height="2" fill="#b8b5d1" opacity="0.25"/><rect x="531" y="521" width="2" height="2" fill="#b8b5d1" opacity="0.12"/><rect x="1089" y="248" width="2" height="2" fill="#b8b5d1" opacity="0.12"/><rect x="279" y="267" width="2" height="2" fill="#b8b5d1" opacity="0.18"/><rect x="1110" y="664" width="2" height="2" fill="#b8b5d1" opacity="0.12"/>
<g transform="translate(640 360) scale(1.22) translate(-640 -360)"><line x1="640" y1="360" x2="888" y2="353" stroke="#0affd4" stroke-opacity="0.35" stroke-width="2"/><line x1="640" y1="360" x2="938" y2="466" stroke="#0affd4" stroke-opacity="0.35" stroke-width="2"/><rect x="811" y="418" width="10" height="10" fill="#0affd4"/><line x1="640" y1="360" x2="627" y2="523" stroke="#0affd4" stroke-opacity="0.35" stroke-width="2"/><rect x="628" y="448" width="10" height="10" fill="#4d8bff"/><line x1="640" y1="360" x2="441" y2="454" stroke="#0affd4" stroke-opacity="0.35" stroke-width="2"/><line x1="640" y1="360" x2="334" y2="342" stroke="#0affd4" stroke-opacity="0.35" stroke-width="2"/><line x1="640" y1="360" x2="446" y2="231" stroke="#0affd4" stroke-opacity="0.35" stroke-width="2"/><line x1="640" y1="360" x2="688" y2="220" stroke="#0affd4" stroke-opacity="0.35" stroke-width="2"/><rect x="655" y="295" width="10" height="10" fill="#0affd4"/><line x1="640" y1="360" x2="775" y2="264" stroke="#0affd4" stroke-opacity="0.35" stroke-width="2"/><line x1="938" y1="466" x2="627" y2="523" stroke="#0affd4" stroke-opacity="0.35" stroke-width="2"/><rect x="729" y="499" width="10" height="10" fill="#0affd4"/><line x1="334" y1="342" x2="446" y2="231" stroke="#0affd4" stroke-opacity="0.35" stroke-width="2"/><rect x="370" y="297" width="10" height="10" fill="#0affd4"/><line x1="688" y1="220" x2="775" y2="264" stroke="#0affd4" stroke-opacity="0.35" stroke-width="2"/><rect x="732" y="240" width="10" height="10" fill="#4d8bff"/><g filter="url(#blur)" opacity="0.65"><rect x="617" y="337" width="46" height="46" fill="#0a0826" stroke="#0affd4" stroke-width="3"/></g><rect x="617" y="337" width="46" height="46" fill="#0a0826" stroke="#0affd4" stroke-width="3"/><rect x="631" y="351" width="18" height="18" fill="#0affd4"/><rect x="875" y="340" width="26" height="26" fill="#0a0826" stroke="#b8b5d1" stroke-width="2"/><rect x="884" y="349" width="8" height="8" fill="#b8b5d1" opacity="0.7"/><rect x="927" y="455" width="22" height="22" fill="#0a0826" stroke="#b8b5d1" stroke-width="2"/><rect x="934" y="462" width="8" height="8" fill="#b8b5d1" opacity="0.7"/><rect x="616" y="512" width="22" height="22" fill="#0a0826" stroke="#b8b5d1" stroke-width="2"/><rect x="623" y="519" width="8" height="8" fill="#b8b5d1" opacity="0.7"/><rect x="430" y="443" width="22" height="22" fill="#0a0826" stroke="#b8b5d1" stroke-width="2"/><rect x="437" y="450" width="8" height="8" fill="#b8b5d1" opacity="0.7"/><rect x="323" y="331" width="22" height="22" fill="#0a0826" stroke="#b8b5d1" stroke-width="2"/><rect x="330" y="338" width="8" height="8" fill="#b8b5d1" opacity="0.7"/><rect x="435" y="220" width="22" height="22" fill="#0a0826" stroke="#b8b5d1" stroke-width="2"/><rect x="442" y="227" width="8" height="8" fill="#b8b5d1" opacity="0.7"/><rect x="675" y="207" width="26" height="26" fill="#0a0826" stroke="#b8b5d1" stroke-width="2"/><rect x="684" y="216" width="8" height="8" fill="#b8b5d1" opacity="0.7"/><rect x="760" y="249" width="30" height="30" fill="#0a0826" stroke="#b8b5d1" stroke-width="2"/><rect x="771" y="260" width="8" height="8" fill="#b8b5d1" opacity="0.7"/></g>
<rect width="1280" height="720" fill="url(#vig)"/>
</svg>
