<svg xmlns="http://www.w3.org/2000/svg" viewBox="0 0 1280 720" width="1280" height="720">
<defs>
<linearGradient id="bg" x1="0" y1="0" x2="1" y2="1"><stop offset="0" stop-color="#030219"/><stop offset="1" stop-color="#0a0826"/></linearGradient>
<radialGradient id="glow" cx="0.62" cy="0.48" r="0.55"><stop offset="0" stop-color="#ff4757" stop-opacity="0.30"/><stop offset="0.55" stop-color="#ffb020" stop-opacity="0.08"/><stop offset="1" stop-color="#030219" stop-opacity="0"/></radialGradient>
<pattern id="grid" width="40" height="40" patternUnits="userSpaceOnUse"><path d="M40 0H0V40" fill="none" stroke="#1f1b47" stroke-width="1"/></pattern>
<linearGradient id="vig" x1="0" y1="0" x2="0" y2="1"><stop offset="0" stop-color="#030219" stop-opacity="0.55"/><stop offset="0.3" stop-color="#030219" stop-opacity="0"/><stop offset="0.75" stop-color="#030219" stop-opacity="0"/><stop offset="1" stop-color="#030219" stop-opacity="0.7"/></linearGradient>
<filter id="blur" x="-50%" y="-50%" width="200%" height="200%"><feGaussianBlur stdDeviation="10"/></filter>
<filter id="soft" x="-50%" y="-50%" width="200%" height="200%"><feGaussianBlur stdDeviation="3"/></filter>
</defs>
<rect width="1280" height="720" fill="url(#bg)"/>
<rect width="1280" height="720" fill="url(#grid)" opacity="0.55"/>
<rect width="1280" height="720" fill="url(#glow)"/>
<rect x="971" y="275" width="2" height="2" fill="#b8b5d1" opacity="0.25"/><rect x="1083" y="682" width="2" height="2" fill="#b8b5d1" opacity="0.18"/><rect x="292" y="390" width="2" height="2" fill="#b8b5d1" opacity="0.12"/><rect x="767" y="494" width="2" height="2" fill="#b8b5d1" opacity="0.18"/><rect x="942" y="707" width="2" height="2" fill="#b8b5d1" opacity="0.25"/><rect x="466" y="571" width="2" height="2" fill="#b8b5d1" opacity="0.12"/><rect x="1278" y="148" width="2" height="2" fill="#b8b5d1" opacity="0.18"/><rect x="752" y="166" width="2" height="2" fill="#b8b5d1" opacity="0.18"/><rect x="430" y="60" width="2" height="2" fill="#b8b5d1" opacity="0.25"/><rect x="408" y="76" width="2" height="2" fill="#b8b5d1" opacity="0.25"/><rect x="690" y="697" width="2" height="2" fill="#b8b5d1" opacity="0.18"/><rect x="178" y="19" width="2" height="2" fill="#b8b5d1" opacity="0.12"/><rect x="1042" y="228" width="2" height="2" fill="#b8b5d1" opacity="0.12"/><rect x="867" y="454" width="2" height="2" fill="#b8b5d1" opacity="0.12"/><rect x="866" y="138" width="2" height="2" fill="#b8b5d1" opacity="0.25"/><rect x="640" y="636" width="2" height="2" fill="#b8b5d1" opacity="0.25"/><rect x="334" y="713" width="2" height="2" fill="#b8b5d1" opacity="0.12"/><rect x="1136" y="175" width="2" height="2" fill="#b8b5d1" opacity="0.25"/><rect x="171" y="410" width="2" height="2" fill="#b8b5d1" opacity="0.25"/><rect x="857" y="684" width="2" height="2" fill="#b8b5d1" opacity="0.25"/><rect x="961" y="488" width="2" height="2" fill="#b8b5d1" opacity="0.25"/><rect x="787" y="554" width="2" height="2" fill="#b8b5d1" opacity="0.12"/><rect x="169" y="196" width="2" height="2" fill="#b8b5d1" opacity="0.25"/><rect x="535" y="364" width="2" height="2" fill="#b8b5d1" opacity="0.18"/><rect x="789" y="689" width="2" height="2" fill="#b8b5d1" opacity="0.18"/><rect x="233" y="258" width="2" height="2" fill="#b8b5d1" opacity="0.12"/>
<g transform="translate(640 360) scale(1.22) translate(-640 -360)"><path d="M490.0 300 H360.0 L334.0 280 H230.0" fill="none" stroke="#ffb020" stroke-opacity="0.45" stroke-width="2"/><rect x="224.0" y="274" width="12" height="12" fill="none" stroke="#b8b5d1" stroke-opacity="0.6" stroke-width="2"/><path d="M490.0 390 H340.0 L310.0 410 H190.0" fill="none" stroke="#ff4757" stroke-opacity="0.45" stroke-width="2"/><rect x="184.0" y="404" width="12" height="12" fill="none" stroke="#b8b5d1" stroke-opacity="0.6" stroke-width="2"/><path d="M490.0 470 H380.0 L358.0 450 H270.0" fill="none" stroke="#ff4757" stroke-opacity="0.45" stroke-width="2"/><rect x="264.0" y="444" width="12" height="12" fill="none" stroke="#b8b5d1" stroke-opacity="0.6" stroke-width="2"/><path d="M790.0 300 H930.0 L958.0 320 H1070.0" fill="none" stroke="#ffb020" stroke-opacity="0.45" stroke-width="2"/><rect x="1064.0" y="314" width="12" height="12" fill="none" stroke="#b8b5d1" stroke-opacity="0.6" stroke-width="2"/><path d="M790.0 390 H910.0 L934.0 370 H1030.0" fill="none" stroke="#ff4757" stroke-opacity="0.45" stroke-width="2"/><rect x="1024.0" y="364" width="12" height="12" fill="none" stroke="#b8b5d1" stroke-opacity="0.6" stroke-width="2"/><path d="M790.0 470 H940.0 L970.0 490 H1090.0" fill="none" stroke="#ff4757" stroke-opacity="0.45" stroke-width="2"/><rect x="1084.0" y="484" width="12" height="12" fill="none" stroke="#b8b5d1" stroke-opacity="0.6" stroke-width="2"/><g filter="url(#blur)" opacity="0.65"><path d="M640 190.0 L790.0 245.0 V370.0 C790.0 470.0 710.0 525.0 640 555.0 C570.0 525.0 490.0 470.0 490.0 370.0 V245.0 Z" fill="#0a0826" stroke="#ff4757" stroke-width="3"/></g><path d="M640 190.0 L790.0 245.0 V370.0 C790.0 470.0 710.0 525.0 640 555.0 C570.0 525.0 490.0 470.0 490.0 370.0 V245.0 Z" fill="#0a0826" stroke="#ff4757" stroke-width="3"/><path d="M640 232.0 L752.0 274.0 V366.0 C752.0 444.0 692.0 486.0 640 510.0 C588.0 486.0 528.0 444.0 528.0 366.0 V274.0 Z" fill="none" stroke="#ff4757" stroke-opacity="0.35" stroke-width="2"/><rect x="602.0" y="350.0" width="76.0" height="64.0" fill="#ff4757"/><path d="M616.0 350.0 V326.0 A24.0 24.0 0 0 1 664.0 326.0 V350.0" fill="none" stroke="#ff4757" stroke-width="9.0"/><rect x="634.0" y="368.0" width="12.0" height="24.0" fill="#030219"/></g>
<rect width="1280" height="720" fill="url(#vig)"/>
</svg>
