<svg xmlns="http://www.w3.org/2000/svg" viewBox="0 0 1280 720" width="1280" height="720">
<defs>
<linearGradient id="bg" x1="0" y1="0" x2="1" y2="1"><stop offset="0" stop-color="#030219"/><stop offset="1" stop-color="#0a0826"/></linearGradient>
<radialGradient id="glow" cx="0.62" cy="0.48" r="0.55"><stop offset="0" stop-color="#6e8bff" stop-opacity="0.30"/><stop offset="0.55" stop-color="#0024ff" stop-opacity="0.08"/><stop offset="1" stop-color="#030219" stop-opacity="0"/></radialGradient>
<pattern id="grid" width="40" height="40" patternUnits="userSpaceOnUse"><path d="M40 0H0V40" fill="none" stroke="#1f1b47" stroke-width="1"/></pattern>
<linearGradient id="vig" x1="0" y1="0" x2="0" y2="1"><stop offset="0" stop-color="#030219" stop-opacity="0.55"/><stop offset="0.3" stop-color="#030219" stop-opacity="0"/><stop offset="0.75" stop-color="#030219" stop-opacity="0"/><stop offset="1" stop-color="#030219" stop-opacity="0.7"/></linearGradient>
<filter id="blur" x="-50%" y="-50%" width="200%" height="200%"><feGaussianBlur stdDeviation="10"/></filter>
<filter id="soft" x="-50%" y="-50%" width="200%" height="200%"><feGaussianBlur stdDeviation="3"/></filter>
</defs>
<rect width="1280" height="720" fill="url(#bg)"/>
<rect width="1280" height="720" fill="url(#grid)" opacity="0.55"/>
<rect width="1280" height="720" fill="url(#glow)"/>
<rect x="1170" y="33" width="2" height="2" fill="#b8b5d1" opacity="0.18"/><rect x="988" y="591" width="2" height="2" fill="#b8b5d1" opacity="0.12"/><rect x="422" y="473" width="2" height="2" fill="#b8b5d1" opacity="0.18"/><rect x="568" y="669" width="2" height="2" fill="#b8b5d1" opacity="0.12"/><rect x="70" y="533" width="2" height="2" fill="#b8b5d1" opacity="0.18"/><rect x="671" y="77" width="2" height="2" fill="#b8b5d1" opacity="0.12"/><rect x="739" y="45" width="2" height="2" fill="#b8b5d1" opacity="0.18"/><rect x="284" y="617" width="2" height="2" fill="#b8b5d1" opacity="0.18"/><rect x="781" y="431" width="2" height="2" fill="#b8b5d1" opacity="0.18"/><rect x="537" y="467" width="2" height="2" fill="#b8b5d1" opacity="0.12"/><rect x="620" y="677" width="2" height="2" fill="#b8b5d1" opacity="0.18"/><rect x="272" y="467" width="2" height="2" fill="#b8b5d1" opacity="0.12"/><rect x="900" y="628" width="2" height="2" fill="#b8b5d1" opacity="0.18"/><rect x="90" y="596" width="2" height="2" fill="#b8b5d1" opacity="0.12"/><rect x="482" y="137" width="2" height="2" fill="#b8b5d1" opacity="0.12"/><rect x="620" y="549" width="2" height="2" fill="#b8b5d1" opacity="0.18"/><rect x="491" y="321" width="2" height="2" fill="#b8b5d1" opacity="0.25"/><rect x="1124" y="461" width="2" height="2" fill="#b8b5d1" opacity="0.18"/><rect x="962" y="66" width="2" height="2" fill="#b8b5d1" opacity="0.25"/><rect x="1197" y="332" width="2" height="2" fill="#b8b5d1" opacity="0.25"/><rect x="320" y="229" width="2" height="2" fill="#b8b5d1" opacity="0.18"/><rect x="488" y="37" width="2" height="2" fill="#b8b5d1" opacity="0.12"/><rect x="1017" y="308" width="2" height="2" fill="#b8b5d1" opacity="0.25"/><rect x="147" y="546" width="2" height="2" fill="#b8b5d1" opacity="0.12"/><rect x="306" y="393" width="2" height="2" fill="#b8b5d1" opacity="0.25"/><rect x="766" y="615" width="2" height="2" fill="#b8b5d1" opacity="0.12"/>
<g transform="translate(640 360) scale(1.12) translate(-640 -360)"><line x1="200" y1="250" x2="700" y2="250" stroke="#6e8bff" stroke-width="4"/><path d="M300 250 C340 170 360 170 400 170 H520 C560 170 580 250 620 250" fill="none" stroke="#0024ff" stroke-width="4"/><rect x="188" y="238" width="24" height="24" fill="#0a0826" stroke="#6e8bff" stroke-width="4"/><rect x="288" y="238" width="24" height="24" fill="#0a0826" stroke="#6e8bff" stroke-width="4"/><rect x="608" y="238" width="24" height="24" fill="#0a0826" stroke="#6e8bff" stroke-width="4"/><rect x="688" y="238" width="24" height="24" fill="#0a0826" stroke="#6e8bff" stroke-width="4"/><rect x="390" y="160" width="20" height="20" fill="#0a0826" stroke="#0024ff" stroke-width="4"/><rect x="450" y="160" width="20" height="20" fill="#0a0826" stroke="#0024ff" stroke-width="4"/><rect x="510" y="160" width="20" height="20" fill="#0a0826" stroke="#0024ff" stroke-width="4"/><rect x="200" y="380" width="170" height="90" fill="#0a0826" fill-opacity="1" stroke="#2a2560" stroke-width="2"/><rect x="220" y="404" width="90" height="8" fill="#b8b5d1" opacity="0.7"/><rect x="220" y="426" width="60" height="8" fill="#7f7ba9" opacity="0.6"/><path d="M378 425 H412" stroke="#6e8bff" stroke-width="3"/><path d="M404 417 L414 425 L404 433" fill="none" stroke="#6e8bff" stroke-width="3"/><rect x="420" y="380" width="170" height="90" fill="#0a0826" fill-opacity="1" stroke="#2a2560" stroke-width="2"/><rect x="440" y="404" width="110" height="8" fill="#b8b5d1" opacity="0.7"/><rect x="440" y="426" width="80" height="8" fill="#7f7ba9" opacity="0.6"/><path d="M598 425 H632" stroke="#6e8bff" stroke-width="3"/><path d="M624 417 L634 425 L624 433" fill="none" stroke="#6e8bff" stroke-width="3"/><rect x="640" y="380" width="170" height="90" fill="#0a0826" fill-opacity="1" stroke="#6e8bff" stroke-width="2"/><rect x="660" y="404" width="70" height="8" fill="#b8b5d1" opacity="0.7"/><rect x="660" y="426" width="100" height="8" fill="#7f7ba9" opacity="0.6"/><path d="M818 425 H852" stroke="#6e8bff" stroke-width="3"/><path d="M844 417 L854 425 L844 433" fill="none" stroke="#6e8bff" stroke-width="3"/><rect x="860" y="380" width="170" height="90" fill="#6e8bff" fill-opacity="0.15" stroke="#6e8bff" stroke-width="2"/><rect x="880" y="404" width="100" height="8" fill="#b8b5d1" opacity="0.7"/><rect x="880" y="426" width="50" height="8" fill="#7f7ba9" opacity="0.6"/><path d="M700 250 C780 250 780 380 860 380" fill="none" stroke="#6e8bff" stroke-opacity="0.35" stroke-width="2" stroke-dasharray="6 8"/><g filter="url(#blur)" opacity="0.65"><rect x="900" y="150" width="200" height="44" fill="#0a0826" stroke="#0024ff" stroke-width="2"/></g><rect x="900" y="150" width="200" height="44" fill="#0a0826" stroke="#0024ff" stroke-width="2"/><rect x="916" y="162" width="24" height="20" fill="none" stroke="#b8b5d1" stroke-opacity="0.45" stroke-width="2"/><rect x="952" y="162" width="24" height="20" fill="none" stroke="#b8b5d1" stroke-opacity="0.45" stroke-width="2"/><rect x="988" y="162" width="24" height="20" fill="none" stroke="#b8b5d1" stroke-opacity="0.45" stroke-width="2"/><rect x="1024" y="162" width="24" height="20" fill="none" stroke="#b8b5d1" stroke-opacity="0.45" stroke-width="2"/><rect x="1060" y="162" width="24" height="20" fill="none" stroke="#b8b5d1" stroke-opacity="0.45" stroke-width="2"/><rect x="900" y="202" width="200" height="44" fill="#0a0826" stroke="#6e8bff" stroke-opacity="0.7" stroke-width="2"/><rect x="916" y="214" width="24" height="20" fill="none" stroke="#b8b5d1" stroke-opacity="0.45" stroke-width="2"/><rect x="952" y="214" width="24" height="20" fill="none" stroke="#b8b5d1" stroke-opacity="0.45" stroke-width="2"/><rect x="988" y="214" width="24" height="20" fill="none" stroke="#b8b5d1" stroke-opacity="0.45" stroke-width="2"/><rect x="1024" y="214" width="24" height="20" fill="none" stroke="#b8b5d1" stroke-opacity="0.45" stroke-width="2"/><rect x="1060" y="214" width="24" height="20" fill="none" stroke="#b8b5d1" stroke-opacity="0.45" stroke-width="2"/><rect x="900" y="254" width="200" height="44" fill="#0a0826" stroke="#6e8bff" stroke-opacity="0.7" stroke-width="2"/><rect x="916" y="266" width="24" height="20" fill="none" stroke="#b8b5d1" stroke-opacity="0.45" stroke-width="2"/><rect x="952" y="266" width="24" height="20" fill="none" stroke="#b8b5d1" stroke-opacity="0.45" stroke-width="2"/><rect x="988" y="266" width="24" height="20" fill="none" stroke="#b8b5d1" stroke-opacity="0.45" stroke-width="2"/><rect x="1024" y="266" width="24" height="20" fill="none" stroke="#b8b5d1" stroke-opacity="0.45" stroke-width="2"/><rect x="1060" y="266" width="24" height="20" fill="none" stroke="#b8b5d1" stroke-opacity="0.45" stroke-width="2"/></g>
<rect width="1280" height="720" fill="url(#vig)"/>
</svg>
